<svg width="205" height="215" fill="none" xmlns="http://www.w3.org/2000/svg"><path d="M194.6 55.35c.16 3.36-.12 6.95-.28 10.53a82.643 82.643 0 0 1-1.92 15.74 2.23 2.23 0 0 0 .46 1.85 74.144 74.144 0 0 1 7.89 16.3 72.888 72.888 0 0 1 3 12 89.646 89.646 0 0 1 1 9.7c.15 2.88 0 5.75-.14 8.61a77.65 77.65 0 0 1-4.28 21.78 86.868 86.868 0 0 1-12.49 23.57 94.476 94.476 0 0 1-13 14.19A100.638 100.638 0 0 1 149 206.41a92.631 92.631 0 0 1-13.88 5 94.653 94.653 0 0 1-15.59 2.9 52.98 52.98 0 0 1-5.62.22c-1.38 0-2.74.24-4.12.24a82.977 82.977 0 0 1-16-1.61 68.862 68.862 0 0 1-31-14.63 70.696 70.696 0 0 1-16.18-19.42 82 82 0 0 1-9.72-27.33 88.853 88.853 0 0 1-1.13-10.44c-.11-2.25-.14-4.5-.13-6.75 0-.79.15-1.58.16-2.37.01-.79-.21-.91-.92-.7a31.274 31.274 0 0 1-4.38 1c-7.35 1-14.11-.37-20-5.08a23.991 23.991 0 0 1-5.86-7.27 34.252 34.252 0 0 1-4.21-13.91 81.398 81.398 0 0 1 0-10 61.941 61.941 0 0 1 2.22-12.79c1.42-5.58 3.3-11 5.27-16.44a154.497 154.497 0 0 1 8.86-19.74A72.582 72.582 0 0 1 27.1 32.12a32.271 32.271 0 0 1 12.3-8.81A17.391 17.391 0 0 1 46.1 22c1.24 0 2.5-.13 3.74 0 2.369.195 4.69.765 6.88 1.69a40.11 40.11 0 0 1 10 6 61.247 61.247 0 0 1 10.12 10.36 84.318 84.318 0 0 1 7 9.9l1 1.76c.55 1 .57 1 1.66.58 1.64-.62 3.27-1.26 4.92-1.86a81.26 81.26 0 0 1 14.17-3.58c.21 0 .41-.09.62-.11a1.58 1.58 0 0 0 1.49-1.24c1.19-3.43 2.52-6.81 3.95-10.15a116.794 116.794 0 0 1 8.71-17.31c2.86-4.44 6.09-8.59 10.43-11.71A27.43 27.43 0 0 1 146.93 1a61.068 61.068 0 0 1 10.72.71 54.78 54.78 0 0 1 13 4c2.74 1.22 5.42 2.58 8.07 4A25.88 25.88 0 0 1 189.87 22a44.353 44.353 0 0 1 3.28 12.29c.54 3.42.82 6.87 1.06 10.32.24 3.45.47 7.01.39 10.74Zm-24.23 20.79c-.38 2-1.9 9.5-2.22 11.47a77.672 77.672 0 0 1-5 17.41 35.046 35.046 0 0 1-4.79 8.47 27.51 27.51 0 0 1-11.5 8.78 25.065 25.065 0 0 1-9.5 1.88 44.547 44.547 0 0 1-10.81-.95 43.691 43.691 0 0 1-12.7-5.14 26.428 26.428 0 0 1-11.22-14.26 54.908 54.908 0 0 1-2.47-15 84.874 84.874 0 0 1 .23-8.88c.1-2 .09-4.09.3-6.11a101.53 101.53 0 0 1 3.13-16.2c.14-.315.161-.67.06-1l-.54.08c-.33.06-.66.12-1 .2a72.46 72.46 0 0 0-21.19 8.42 68.53 68.53 0 0 0-17.92 15.26 74.927 74.927 0 0 0-12.06 20.67 92.79 92.79 0 0 0-5.72 22.89 86.788 86.788 0 0 0-.67 14.6c.115 3.249.395 6.49.84 9.71A72.001 72.001 0 0 0 57.42 179a59.522 59.522 0 0 0 38.84 25.23 78.696 78.696 0 0 0 12.54 1.35c3.29.077 6.582-.077 9.85-.46a85.256 85.256 0 0 0 26.35-7 90.482 90.482 0 0 0 24.39-16 83.597 83.597 0 0 0 17.05-21.63 74.82 74.82 0 0 0 9.06-31.36 67.884 67.884 0 0 0-.13-9.88 69.489 69.489 0 0 0-3.72-17.57 59.92 59.92 0 0 0-4-9c-7.05-12.74-17.28-16.54-17.28-16.54Zm11.8 6.71a22.8 22.8 0 0 0 1.61-5.49 100.626 100.626 0 0 0 1.44-15.3c.243-5.252.207-10.512-.11-15.76-.299-4.91-.91-9.797-1.83-14.63a21.987 21.987 0 0 0-3.68-9.08 13.667 13.667 0 0 0-5.17-4.61c-1.77-.83-3.49-1.78-5.25-2.64a46.8 46.8 0 0 0-16-5c-3.012-.4-6.066-.37-9.07.09a19.12 19.12 0 0 0-10.87 6 52.666 52.666 0 0 0-8 11.77 173.668 173.668 0 0 0-8.28 19.17c-3.55 9.53-6.32 19.25-7 29.47-.09 1.37-.13 2.74-.27 4.11a36.38 36.38 0 0 0 0 7 47.287 47.287 0 0 0 2.29 10.62 21.551 21.551 0 0 0 6.62 9.84 26.479 26.479 0 0 0 9.94 5.35 25 25 0 0 0 11.39.68 14.848 14.848 0 0 0 7-3.06 19.437 19.437 0 0 0 5.53-7.33 79.892 79.892 0 0 0 4.51-14c1.3-6.21 2.51-12.43 3.73-18.65 1.22-6.22 2.45-12.35 3.62-18.54A103.96 103.96 0 0 1 168 38.3a25.876 25.876 0 0 1 5.32-9.41 7.595 7.595 0 0 1 3.38-2.28 4.53 4.53 0 0 1 5.18 1.76c.535.81.781 1.776.699 2.743a4.315 4.315 0 0 1-1.149 2.587c-.34.42-.71.81-1.08 1.21a2.184 2.184 0 0 0-.5 2.18c.563 2.01.994 4.054 1.29 6.12a56.83 56.83 0 0 1-.08 13.86c-.5 3.84-1.16 7.66-1.81 11.49a24.777 24.777 0 0 0-.35 8.8 10.102 10.102 0 0 0 3.27 5.49ZM59.64 46c.553.443 1.084.914 1.59 1.41a26.31 26.31 0 0 1 6.26 9.84c.631 1.6 1.153 3.24 1.56 4.91 1.71-1.16 3.19-2.17 4.68-3.15.87-.58 1.77-1.11 2.67-1.63.5-.29.63-.61.3-1.11-.33-.5-.5-.87-.73-1.31a56.182 56.182 0 0 0-6.55-9.14 50.648 50.648 0 0 0-16.15-13.41 13 13 0 0 0-7.16-1.3 14 14 0 0 0-6.28 2.32 29.88 29.88 0 0 0-7.14 6.41 73.692 73.692 0 0 0-9 14.25 158.753 158.753 0 0 0-8 18.76 129.581 129.581 0 0 0-5.3 18.75 43.059 43.059 0 0 0-.57 14.67 27.57 27.57 0 0 0 3.1 9.46 13.996 13.996 0 0 0 5.55 5.8c5.81 3.07 11.56 2.52 17.22-.51a1.857 1.857 0 0 0 1-1.46 103.6 103.6 0 0 1 3.37-14.36 6.64 6.64 0 0 0 .09-3.67 71.455 71.455 0 0 1-1.86-16.87c0-2.88 0-5.75.15-8.63.14-3.29.31-6.57.74-9.84 1.23-9.24 6.07-19.06 11.67-21.52 5.6-2.46 8.79 1.33 8.79 1.33Z" fill="#286056"/><path d="M97.34 135.57a13.754 13.754 0 0 1 7.42 2c1.53.9 3 1.87 4.49 2.82 1 .61 1 .61 1.6-.42a28.513 28.513 0 0 1 3-4.54 7.079 7.079 0 0 1 4.57-2.72 8.16 8.16 0 0 1 3.57.48 22.7 22.7 0 0 1 5 2.5 6.36 6.36 0 0 1 3.13 6.42 28.886 28.886 0 0 1-2.32 7.66c-.11.28-.27.54-.4.81-.68 1.41-.64 1.38.38 2.61a16.794 16.794 0 0 1 3.63 6.91 6.504 6.504 0 0 1-.6 4.7 17.442 17.442 0 0 1-5.19 6 6.372 6.372 0 0 1-2.16 1.09 4.583 4.583 0 0 1-4.91-1.57c-.73-.83-1.39-1.72-2.1-2.58-.71-.86-.91-1-1.82-.2a32.635 32.635 0 0 1-9 5.17 7.592 7.592 0 0 1-7.08-.61 21.729 21.729 0 0 1-6.65-6.29 3.29 3.29 0 0 1-.34-2.91c.66-2.42 2.36-4.06 4.25-5.55 1.19-.94 2.41-1.84 3.58-2.81.94-.78.9-.9-.1-1.68a10.082 10.082 0 0 0-3-1.52c-1.34-.46-2.68-.93-4-1.28a5.613 5.613 0 0 1-4.06-6.69 10.747 10.747 0 0 1 3-5.7 7.727 7.727 0 0 1 6.11-2.1ZM55.5 154.29a10.246 10.246 0 0 1 4.25-8.89 6.51 6.51 0 0 1 6.11-1.19 12.23 12.23 0 0 1 6.95 5.14 3.91 3.91 0 0 1 .46 3.55 22.23 22.23 0 0 1-1.45 3.13 22.01 22.01 0 0 0-1.58 3.37 2.378 2.378 0 0 0 1.21 3.36 16.666 16.666 0 0 0 3.37 1.56c.92.3 1.82.66 2.71 1a3.587 3.587 0 0 1 2.24 2.77c.066.266.113.537.14.81a14.582 14.582 0 0 1-2.49 8.74c-1 1.42-2.48 1.65-4 1.58a7.185 7.185 0 0 1-3.26-1.06l-3.16-1.8c-1.37-.83-2-.66-2.72.8a18.892 18.892 0 0 0-1.18 3.09 11.8 11.8 0 0 1-1.46 3.26 3.79 3.79 0 0 1-4.84 1.45 5.987 5.987 0 0 1-1.43-.82 17.3 17.3 0 0 1-4.27-4.83c-1.3-2.18-1.1-4.49-.4-6.81a15.978 15.978 0 0 1 1.58-3.21c.54-.95.49-1.06-.53-1.52-.55-.24-1.12-.43-1.67-.67a8.237 8.237 0 0 1-5.35-7.68c-.08-1.79 0-3.59 0-5.38a2.667 2.667 0 0 1 1.65-2.37 2.193 2.193 0 0 1 2.55.46 25.634 25.634 0 0 0 4.64 3.45c.51.26 1 .92 1.58.59.58-.33.21-1.09.28-1.66.09-.14.07-.28.07-.22ZM176.66 26.61s11-3 13.07-.48c8.07 9.68-1.07 62.92-1.07 62.92l-24.2-19.9 12.2-42.54Z" fill="#286056"/><path d="m49 152.13-7.7-6.61 3.43 17.52 2.02 7.78 12.3 1.59L49 152.13ZM27.86 126.16v52.43a4.568 4.568 0 0 1-4.58 4.57 4.57 4.57 0 0 1-4.57-4.57v-52.43M156.39 113.52v22.05a4.581 4.581 0 0 1-4.57 4.57 4.567 4.567 0 0 1-4.222-2.821 4.567 4.567 0 0 1-.348-1.749v-23.25M195.65 157v28.58a4.567 4.567 0 0 1-2.821 4.222 4.567 4.567 0 0 1-1.749.348 4.57 4.57 0 0 1-3.234-1.336 4.547 4.547 0 0 1-1.336-3.234v-18.91" fill="#286056"/></svg>