<svg xmlns="http://www.w3.org/2000/svg" width="100" height="101" fill="none"><path fill="#0C0C0C" d="M84.562 18.389A81.571 81.571 0 0 0 64.202 12c-.883 1.558-1.922 3.688-2.597 5.402-7.584-1.143-15.115-1.143-22.542 0-.727-1.714-1.766-3.844-2.649-5.402a81.571 81.571 0 0 0-20.36 6.389C3.173 37.814-.307 56.772 1.407 75.418c8.57 6.388 16.828 10.232 24.983 12.777 2.025-2.753 3.791-5.713 5.35-8.778-2.961-1.09-5.766-2.493-8.415-4.103.727-.52 1.403-1.09 2.078-1.61 16.257 7.583 33.864 7.583 49.913 0 .676.571 1.35 1.09 2.078 1.61-2.649 1.61-5.506 2.96-8.414 4.103 1.558 3.065 3.324 6.025 5.35 8.778 8.154-2.545 16.464-6.388 24.982-12.777 2.026-21.659-3.48-40.409-14.647-57.03h-.103ZM33.92 63.99c-4.882 0-8.882-4.518-8.882-10.076 0-5.557 3.896-10.076 8.882-10.076s8.933 4.519 8.882 10.076c0 5.506-3.896 10.076-8.882 10.076Zm32.774 0c-4.883 0-8.882-4.518-8.882-10.076 0-5.557 3.895-10.076 8.882-10.076 4.986 0 8.933 4.519 8.881 10.076 0 5.506-3.895 10.076-8.881 10.076Z"/></svg>